<?xml version="1.0" standalone="no"?>
<!DOCTYPE svg PUBLIC "-//W3C//DTD SVG 20010904//EN"
 "http://www.w3.org/TR/2001/REC-SVG-20010904/DTD/svg10.dtd">
<svg version="1.0" xmlns="http://www.w3.org/2000/svg"
 width="225.000000pt" height="225.000000pt" viewBox="0 0 225.000000 225.000000"
 preserveAspectRatio="xMidYMid meet">
<metadata>
Created by potrace 1.11, written by Peter Selinger 2001-2013
</metadata>
<g transform="translate(0.000000,225.000000) scale(0.100000,-0.100000)"
fill="#000000" stroke="none">
<path d="M1060 2229 l-35 -6 25 -11 c23 -11 22 -11 -12 -6 -25 4 -38 2 -38 -5
0 -6 -9 -11 -19 -11 -10 0 -38 -9 -62 -20 -24 -11 -54 -20 -65 -20 -43 0 -228
-60 -263 -85 -21 -14 -42 -25 -49 -25 -7 0 -12 -3 -12 -8 0 -4 -9 -12 -20 -17
-104 -52 -137 -75 -197 -133 -132 -130 -229 -308 -278 -512 -22 -92 -30 -298
-16 -398 61 -417 352 -767 745 -897 117 -39 149 -45 284 -55 121 -9 138 -8
256 15 70 14 134 29 144 34 9 5 40 17 67 26 28 10 71 31 98 47 46 29 52 41 50
96 -1 6 2 12 6 12 4 0 7 16 8 35 0 23 8 42 24 56 l24 21 -35 -20 c-137 -79
-248 -120 -388 -143 -86 -15 -94 -9 -81 52 6 25 6 47 -1 59 -6 12 -6 20 0 22
5 2 7 19 4 40 -5 28 -13 39 -33 47 -25 9 -25 9 9 10 54 1 167 37 248 77 76 39
93 58 42 47 -25 -4 -29 -3 -25 10 4 9 -9 30 -34 55 -23 22 -41 45 -41 50 0 6
-12 20 -26 31 -15 12 -22 21 -15 21 6 0 10 3 9 8 0 4 37 45 83 92 l84 85 38
-39 c20 -21 37 -42 37 -47 0 -5 9 -9 19 -9 10 0 21 -7 25 -15 3 -8 12 -15 21
-15 8 0 15 -5 15 -11 0 -5 4 -8 9 -4 6 3 6 -7 1 -27 l-9 -33 24 29 c31 39 68
115 96 201 19 56 23 93 24 185 0 136 -19 221 -74 334 -20 42 -33 76 -29 76 4
0 8 -5 8 -11 0 -5 5 -7 12 -3 8 5 9 2 5 -10 -6 -14 -3 -15 13 -6 15 8 20 21
20 56 0 72 19 134 41 134 11 0 19 -5 19 -11 0 -5 5 -7 11 -3 6 3 15 0 20 -7 7
-11 9 -10 9 4 0 27 12 20 52 -32 87 -113 148 -292 156 -457 10 -228 -51 -445
-174 -616 -19 -27 -30 -48 -26 -48 4 0 16 14 26 31 10 17 20 28 24 25 3 -3 11
-1 18 5 7 6 19 7 26 3 21 -13 91 -3 119 16 33 24 80 142 115 287 25 101 26
118 20 265 -5 120 -12 180 -32 255 -107 415 -450 735 -864 807 -98 17 -229 24
-280 15z m-16 -95 c22 -9 20 -24 -3 -24 -34 0 -233 -51 -310 -80 -42 -15 -97
-40 -123 -55 -39 -22 -48 -24 -48 -11 0 9 7 16 15 16 9 0 18 7 21 15 4 8 13
15 21 15 9 0 43 17 77 39 55 34 146 73 201 84 32 7 132 8 149 1z m265 -95 c40
-10 49 -15 35 -20 -14 -6 -11 -8 14 -8 20 -1 31 -5 27 -11 -10 -16 -74 -40
-105 -40 -15 0 -33 -7 -40 -15 -7 -8 -19 -15 -26 -15 -8 0 -14 -7 -14 -15 0
-8 -13 -21 -28 -29 -16 -8 -34 -22 -41 -30 -12 -14 -8 -16 30 -17 100 -2 86
-16 -16 -16 -189 0 -343 -58 -474 -179 -171 -159 -250 -347 -239 -568 5 -88 2
-87 -18 11 l-4 23 -45 -22 c-25 -12 -45 -28 -45 -35 0 -7 -9 -13 -20 -13 -11
0 -29 -6 -40 -12 -35 -22 -42 5 -36 142 13 345 193 630 491 779 204 101 410
132 594 90z m-759 -89 c0 -5 -4 -10 -10 -10 -5 0 -10 5 -10 10 0 6 5 10 10 10
6 0 10 -4 10 -10z m743 -137 c-7 -2 -19 -2 -25 0 -7 3 -2 5 12 5 14 0 19 -2
13 -5z m57 -13 c18 -12 2 -12 -25 0 -13 6 -15 9 -5 9 8 0 22 -4 30 -9z m166
-78 c-5 -4 -86 36 -86 43 0 3 20 -5 45 -17 24 -12 43 -23 41 -26z m-401 -194
c-4 -44 -4 -43 -15 -32 -7 7 -8 19 -1 37 14 36 19 34 16 -5z m-50 -137 c-7
-22 16 -43 42 -39 15 2 18 -4 18 -34 0 -20 3 -40 8 -44 4 -4 7 -21 7 -38 l0
-31 20 25 c16 20 20 22 20 8 0 -10 -4 -18 -10 -18 -5 0 -10 -11 -10 -25 0 -33
32 -49 86 -41 25 3 46 1 49 -5 4 -6 11 -6 18 -1 7 5 23 13 37 17 25 7 25 7 5
-12 -11 -10 -35 -29 -52 -41 -18 -13 -33 -31 -33 -40 1 -20 29 -73 30 -54 0
15 64 16 106 2 16 -5 48 -14 72 -20 26 -7 42 -16 42 -26 0 -8 -4 -12 -10 -9
-5 3 -7 0 -4 -9 19 -49 -130 -202 -214 -220 -28 -7 -30 -5 -36 34 -7 43 -1 64
15 55 5 -4 9 -4 9 -1 0 8 -168 136 -180 136 -6 0 -24 -7 -40 -15 -17 -9 -30
-11 -30 -5 0 5 7 10 15 10 8 0 15 5 15 11 0 5 -6 7 -12 4 -7 -4 -2 3 11 14 20
18 21 24 10 37 -10 12 -10 17 0 23 7 5 11 19 9 32 -2 19 -9 24 -28 23 -14 -1
-44 2 -68 6 -36 6 -41 5 -31 -7 9 -11 9 -17 0 -26 -10 -9 -11 -9 -7 3 4 10 -6
24 -29 39 -19 13 -35 27 -35 32 0 5 -5 9 -11 9 -10 0 -91 54 -152 102 -21 17
-20 17 58 19 44 0 105 4 135 9 54 7 54 7 13 9 -29 1 -43 5 -43 15 0 8 -7 16
-15 20 -8 3 -15 15 -15 26 0 16 7 20 31 20 37 0 99 -35 99 -56 0 -8 6 -14 13
-14 8 0 7 -4 -3 -11 -11 -7 -11 -9 -1 -7 7 2 23 26 35 53 23 55 35 75 42 75 3
0 3 -8 -1 -19z m449 -132 c-3 -6 -14 -9 -24 -6 -13 3 -17 0 -13 -9 6 -17 -13
-19 -23 -3 -8 14 14 29 44 29 14 0 21 -4 16 -11z m-604 -424 c0 -1 -7 -8 -15
-15 -13 -10 -15 -9 -15 8 0 15 5 20 15 16 8 -4 15 -7 15 -9z m-180 -292 c0 -7
-58 36 -66 49 -4 7 9 -1 29 -16 20 -16 37 -30 37 -33z m35 -21 c-3 -3 -11 0
-18 7 -9 10 -8 11 6 5 10 -3 15 -9 12 -12z m905 -242 c0 -5 -4 -10 -10 -10 -5
0 -10 5 -10 10 0 6 5 10 10 10 6 0 10 -4 10 -10z"/>
<path d="M1660 690 c-8 -5 -12 -12 -9 -15 4 -3 12 1 19 10 14 17 11 19 -10 5z"/>
</g>
</svg>
